<svg width="15" height="14" viewBox="0 0 15 14" fill="none" xmlns="http://www.w3.org/2000/svg">
<path fill-rule="evenodd" clip-rule="evenodd" d="M9.71231 12.8333V8.31541H11.2249L11.4513 6.55491H9.71173V5.43082C9.71173 4.92099 9.85311 4.57332 10.5827 4.57332H11.5123V2.99832C11.0621 2.95028 10.6096 2.92691 10.1568 2.92832C8.81637 2.92832 7.8989 3.74907 7.8989 5.25582V6.55491H6.38161V8.31541H7.89832V12.8333H2.36964C2.01476 12.8333 1.72736 12.5452 1.72736 12.1893V1.81066C1.72736 1.45482 2.01476 1.16666 2.36964 1.16666H12.7207C13.0756 1.16666 13.363 1.45482 13.363 1.81066V12.1893C13.363 12.5452 13.0756 12.8333 12.7207 12.8333H9.71231V12.8333Z" fill="#EFECDE"/>
</svg>
