<svg width="13" height="12" viewBox="0 0 13 12" fill="none" xmlns="http://www.w3.org/2000/svg">
<path d="M6.45743 4.57125C6.17562 4.57136 5.90018 4.65524 5.66591 4.8123C5.43165 4.96936 5.2491 5.19253 5.14133 5.45361C5.03356 5.71469 5.00542 6.00195 5.06046 6.27906C5.1155 6.55618 5.25126 6.81071 5.45056 7.01047C5.64986 7.21023 5.90377 7.34625 6.18016 7.40134C6.45656 7.45642 6.74305 7.4281 7.00339 7.31994C7.26373 7.21179 7.48625 7.02866 7.6428 6.79372C7.79935 6.55877 7.88291 6.28256 7.88291 6C7.88263 5.62107 7.73234 5.25774 7.46505 4.98985C7.19777 4.72195 6.83535 4.57139 6.45743 4.57125V4.57125ZM9.78899 3.47304C9.71645 3.28871 9.6069 3.12129 9.46716 2.98117C9.32741 2.84105 9.16044 2.73122 8.9766 2.65848C8.4156 2.43643 7.07987 2.48625 6.45743 2.48625C5.83498 2.48625 4.50059 2.43455 3.93799 2.65848C3.75415 2.73122 3.58718 2.84105 3.44743 2.98117C3.30768 3.12129 3.19814 3.28871 3.1256 3.47304C2.9044 4.03554 2.95383 5.37616 2.95383 5.99973C2.95383 6.6233 2.9044 7.96232 3.12667 8.5267C3.19921 8.71102 3.30875 8.87844 3.4485 9.01856C3.58825 9.15868 3.75522 9.26851 3.93906 9.34125C4.50006 9.5633 5.83578 9.51348 6.4585 9.51348C7.08121 9.51348 8.41506 9.56518 8.97767 9.34125C9.16151 9.26851 9.32848 9.15868 9.46823 9.01856C9.60797 8.87844 9.71752 8.71102 9.79006 8.5267C10.0131 7.9642 9.96183 6.62357 9.96183 6C9.96183 5.37643 10.0131 4.03768 9.79006 3.4733L9.78899 3.47304ZM6.45743 8.19643C6.02417 8.19643 5.60064 8.06761 5.2404 7.82626C4.88016 7.58492 4.59939 7.24188 4.43359 6.84054C4.26779 6.43919 4.22441 5.99756 4.30893 5.5715C4.39346 5.14543 4.60209 4.75407 4.90845 4.44689C5.21481 4.13971 5.60513 3.93052 6.03007 3.84578C6.455 3.76103 6.89545 3.80452 7.29573 3.97076C7.69601 4.13701 8.03813 4.41853 8.27883 4.77973C8.51954 5.14093 8.64801 5.56559 8.64801 6C8.64837 6.28854 8.59194 6.57431 8.48198 6.84095C8.37202 7.1076 8.21068 7.34987 8.00719 7.5539C7.80371 7.75792 7.56208 7.9197 7.29614 8.02995C7.03021 8.14021 6.7452 8.19678 6.45743 8.19643V8.19643ZM8.73831 4.22411C8.63717 4.22416 8.53828 4.19414 8.45416 4.13784C8.37004 4.08153 8.30447 4.00148 8.26572 3.90781C8.22698 3.81413 8.21682 3.71104 8.23652 3.61157C8.25622 3.51211 8.30489 3.42073 8.37639 3.349C8.44789 3.27728 8.539 3.22842 8.63819 3.20862C8.73738 3.18882 8.84021 3.19895 8.93365 3.23775C9.0271 3.27655 9.10697 3.34226 9.16317 3.42657C9.21936 3.51089 9.24936 3.61002 9.24936 3.71143C9.24964 3.77877 9.23666 3.84551 9.21116 3.90781C9.18566 3.97011 9.14814 4.02675 9.10076 4.07448C9.05338 4.12221 8.99707 4.16009 8.93505 4.18595C8.87304 4.21181 8.80654 4.22514 8.73938 4.22518L8.73831 4.22411ZM11.1592 0H1.75568C1.4156 0 1.08944 0.135459 0.848964 0.376577C0.608487 0.617695 0.473389 0.944722 0.473389 1.28571L0.473389 10.7143C0.473389 11.0553 0.608487 11.3823 0.848964 11.6234C1.08944 11.8645 1.4156 12 1.75568 12H11.1592C11.4993 12 11.8254 11.8645 12.0659 11.6234C12.3064 11.3823 12.4415 11.0553 12.4415 10.7143V1.28571C12.4415 0.944722 12.3064 0.617695 12.0659 0.376577C11.8254 0.135459 11.4993 0 11.1592 0V0ZM10.7018 7.76786C10.6674 8.45438 10.5111 9.06268 10.0113 9.5625C9.51143 10.0623 8.90527 10.2222 8.22138 10.2549C7.51585 10.2948 5.4006 10.2948 4.69507 10.2549C4.01038 10.2204 3.40584 10.0634 2.90521 9.5625C2.40458 9.06161 2.24723 8.45304 2.21464 7.76786C2.17483 7.06018 2.17483 4.93902 2.21464 4.23214C2.2491 3.54563 2.40351 2.93732 2.90521 2.4375C3.4069 1.93768 4.01305 1.77964 4.69507 1.74696C5.4006 1.70705 7.51585 1.70705 8.22138 1.74696C8.90608 1.78152 9.51249 1.93848 10.0113 2.43938C10.51 2.94027 10.6692 3.54884 10.7018 4.23536C10.7416 4.94036 10.7416 7.05964 10.7018 7.76786Z" fill="#EFECDE"/>
</svg>
