<svg width="108" height="20" viewBox="0 0 108 20" fill="none" xmlns="http://www.w3.org/2000/svg">
<rect x="88" width="20" height="20" fill="#FFFA52"/>
<path d="M102.138 7.30612H101.824C101.859 7.83333 101.883 8.56803 101.893 9.40136C101.893 9.52041 101.796 9.61565 101.679 9.61565H100.36C100.243 9.61565 100.146 9.52041 100.146 9.40476V6.2483C100.146 5.68707 100.453 5.5136 101.317 5.44898V5C99.9181 5.04762 98.4404 5.04762 97.042 5V5.44898C97.919 5.5136 98.2297 5.69048 98.2297 6.2483V9.40476C98.2297 9.52041 98.1331 9.61565 98.0157 9.61565H94.594C94.4766 9.61565 94.3799 9.52041 94.3799 9.40476V6.2483C94.3799 5.68707 94.6872 5.5136 95.5504 5.44898V5C94.152 5.04762 92.6742 5.04762 91.2759 5V5.44898C92.1529 5.5136 92.4636 5.69048 92.4636 6.2483V13.7517C92.4636 14.3129 92.1563 14.4864 91.2759 14.551V15C92.6742 14.9524 94.152 14.9524 95.5504 15V14.551C94.6907 14.4864 94.3799 14.3095 94.3799 13.7517V10.5952C94.3799 10.4796 94.4766 10.3844 94.594 10.3844H98.0157C98.1331 10.3844 98.2297 10.4796 98.2297 10.5952V13.7517C98.2297 14.3129 97.9224 14.4864 97.042 14.551V15C98.4404 14.9524 99.9181 14.9524 101.317 15V14.551C100.457 14.4864 100.146 14.3095 100.146 13.7517V10.5952C100.146 10.4796 100.243 10.3844 100.36 10.3844H101.679C101.8 10.3844 101.897 10.4796 101.893 10.5986C101.886 11.432 101.862 12.1633 101.824 12.6939H102.138C102.138 12.6939 102.694 10.9728 104.552 10.1224V10V9.87755C102.684 9.0102 102.138 7.30612 102.138 7.30612Z" fill="#081717"/>
<rect width="88" height="20" fill="#041111"/>
<path d="M20.4336 13.3037H16.127V10.0576H20.2168V9.3428H16.127V6.30179H20.4336V5.57523H15.3301V14.0303H20.4336V13.3037ZM22.1637 14.0303H22.9371V5.20609H22.1637V14.0303ZM27.2746 8.33499C28.4172 8.33499 29.1906 9.17874 29.2023 10.4326H25.2766C25.3469 9.17874 26.1438 8.33499 27.2746 8.33499ZM29.1613 12.2432C28.9738 12.9346 28.3 13.4151 27.3508 13.4151C26.0969 13.4151 25.2766 12.5362 25.2766 11.1065V11.0655H30.0109V10.7256C30.0109 8.85062 28.9445 7.64944 27.2863 7.64944C25.5871 7.64944 24.4738 8.93265 24.4738 10.8897C24.4738 12.876 25.5871 14.1006 27.3332 14.1006C28.7043 14.1006 29.7414 13.3213 29.9289 12.2432H29.1613ZM36.6102 9.70609C36.4578 8.5928 35.491 7.64944 34.0145 7.64944C32.3035 7.64944 31.1785 8.92093 31.1785 10.8721C31.1785 12.8643 32.3094 14.1006 34.0262 14.1006C35.4207 14.1006 36.4344 13.2744 36.616 12.085H35.8484C35.6668 12.9112 34.993 13.4034 34.0262 13.4034C32.7898 13.4034 31.9695 12.4366 31.9695 10.8721C31.9695 9.33694 32.784 8.34085 34.0203 8.34085C35.0281 8.34085 35.6902 8.93265 35.8426 9.70609H36.6102ZM43.1391 9.70609C42.9867 8.5928 42.0199 7.64944 40.5434 7.64944C38.8324 7.64944 37.7074 8.92093 37.7074 10.8721C37.7074 12.8643 38.8383 14.1006 40.5551 14.1006C41.9496 14.1006 42.9633 13.2744 43.1449 12.085H42.3773C42.1957 12.9112 41.5219 13.4034 40.5551 13.4034C39.3188 13.4034 38.4984 12.4366 38.4984 10.8721C38.4984 9.33694 39.3129 8.34085 40.5492 8.34085C41.557 8.34085 42.2191 8.93265 42.3715 9.70609H43.1391ZM44.6113 14.0303H45.3848V7.71976H44.6113V14.0303ZM44.998 6.47171C45.2852 6.47171 45.5195 6.23148 45.5195 5.95023C45.5195 5.65726 45.2852 5.42288 44.998 5.42288C44.7109 5.42288 44.4707 5.65726 44.4707 5.95023C44.4707 6.23148 44.7109 6.47171 44.998 6.47171ZM49.7867 14.1006C51.5211 14.1006 52.6578 12.8409 52.6578 10.8721C52.6578 8.90335 51.5211 7.64944 49.7867 7.64944C48.0523 7.64944 46.9215 8.90335 46.9215 10.8721C46.9215 12.8409 48.0523 14.1006 49.7867 14.1006ZM49.7867 13.4034C48.5094 13.4034 47.7125 12.4483 47.7125 10.8721C47.7125 9.30179 48.5094 8.34085 49.7867 8.34085C51.0699 8.34085 51.8668 9.29593 51.8668 10.8721C51.8668 12.4483 51.0699 13.4034 49.7867 13.4034ZM54.1418 14.0303H54.9152V10.3213C54.9152 9.14359 55.6301 8.34085 56.7551 8.34085C57.8273 8.34085 58.4367 8.97952 58.4367 10.0928V14.0303H59.2102V9.96976C59.2102 8.54007 58.3605 7.64944 56.9719 7.64944C55.9523 7.64944 55.2434 8.11234 54.8918 8.89749H54.8684V7.71976H54.1418V14.0303ZM63.4598 8.33499C64.6023 8.33499 65.3758 9.17874 65.3875 10.4326H61.4617C61.532 9.17874 62.3289 8.33499 63.4598 8.33499ZM65.3465 12.2432C65.159 12.9346 64.4852 13.4151 63.5359 13.4151C62.282 13.4151 61.4617 12.5362 61.4617 11.1065V11.0655H66.1961V10.7256C66.1961 8.85062 65.1297 7.64944 63.4715 7.64944C61.7723 7.64944 60.659 8.93265 60.659 10.8897C60.659 12.876 61.7723 14.1006 63.5184 14.1006C64.8895 14.1006 65.9266 13.3213 66.1141 12.2432H65.3465ZM67.5512 9.41898C67.5512 10.251 68.0902 10.7666 69.1801 11.042L70.2465 11.3116C71.102 11.5225 71.4242 11.8155 71.4242 12.3487C71.4242 13.0166 70.768 13.4502 69.8246 13.4502C68.8695 13.4502 68.2426 12.9756 68.1488 12.2549H67.3637C67.4516 13.3272 68.4242 14.1006 69.7777 14.1006C71.1957 14.1006 72.2094 13.3623 72.2094 12.2959C72.2094 11.3994 71.7289 10.9424 70.4633 10.626L69.4965 10.3916C68.6937 10.1924 68.3187 9.89359 68.3187 9.37796C68.3187 8.73929 68.9516 8.30569 69.7953 8.30569C70.6859 8.30569 71.266 8.7803 71.3422 9.49515H72.0863C72.0219 8.41116 71.0961 7.64944 69.8187 7.64944C68.518 7.64944 67.5512 8.37601 67.5512 9.41898Z" fill="white"/>
</svg>
