<svg width="31" height="27" viewBox="0 0 31 27" fill="none" xmlns="http://www.w3.org/2000/svg">
<rect width="29.9202" height="26.6667" transform="translate(0.832458)" fill="#EFECDE"/>
<path d="M21.4342 10.0909H21.0167C21.0626 10.7255 21.0947 11.6098 21.1085 12.6128C21.1085 12.7561 20.98 12.8707 20.824 12.8707H19.0717C18.9158 12.8707 18.7873 12.7561 18.7873 12.6169V8.81768C18.7873 8.14217 19.1956 7.93338 20.3424 7.85559V7.31519C18.4846 7.3725 16.5213 7.3725 14.6634 7.31519V7.85559C15.8286 7.93338 16.2414 8.14626 16.2414 8.81768V12.6169C16.2414 12.7561 16.113 12.8707 15.957 12.8707H11.4111C11.2551 12.8707 11.1267 12.7561 11.1267 12.6169V8.81768C11.1267 8.14217 11.535 7.93338 12.6818 7.85559V7.31519C10.8239 7.3725 8.86062 7.3725 7.00281 7.31519V7.85559C8.16796 7.93338 8.58081 8.14626 8.58081 8.81768V17.849C8.58081 18.5245 8.17254 18.7333 7.00281 18.8111V19.3515C8.86062 19.2942 10.8239 19.2942 12.6818 19.3515V18.8111C11.5396 18.7333 11.1267 18.5204 11.1267 17.849V14.0498C11.1267 13.9106 11.2551 13.796 11.4111 13.796H15.957C16.113 13.796 16.2414 13.9106 16.2414 14.0498V17.849C16.2414 18.5245 15.8332 18.7333 14.6634 18.8111V19.3515C16.5213 19.2942 18.4846 19.2942 20.3424 19.3515V18.8111C19.2002 18.7333 18.7873 18.5204 18.7873 17.849V14.0498C18.7873 13.9106 18.9158 13.796 19.0717 13.796H20.824C20.9846 13.796 21.113 13.9106 21.1085 14.0539C21.0993 15.0569 21.0672 15.9371 21.0167 16.5758H21.4342C21.4342 16.5758 22.1727 14.5042 24.6406 13.4807V13.3333V13.186C22.1589 12.142 21.4342 10.0909 21.4342 10.0909Z" fill="#081717"/>
</svg>
