<svg id="Layer_1" enable-background="new 0 0 512.006 512.006" height="512" viewBox="0 0 512.006 512.006" width="512" xmlns="http://www.w3.org/2000/svg"><g><path d="m414.171 328.143c.386-.386.751-.784 1.121-1.179.01-.01.02-.017.03-.027l65.727-66.031c18.745-18.745 18.746-49.247 0-67.994-4.521-4.521-9.725-7.952-15.285-10.292 18.155-18.792 17.96-48.85-.587-67.396-5.13-5.13-11.216-8.956-17.855-11.316 8.863-17.97 5.841-40.363-9.094-55.298-9.081-9.081-21.155-14.083-33.997-14.083-3.304 0-6.556.337-9.721.983-1.911-7.993-5.974-15.568-12.194-21.788-18.084-18.085-47.51-18.084-65.594-.001l-85.563 85.542c.121-1.688.17-3.364.146-5.025-.436-30.033-21.207-55.715-50.511-62.451l-15.904-3.657c-7.722-1.769-15.493 2.762-17.744 10.36-.121.409-10.555 35.534-26.1 80.167-7.025-5.132-15.079-8.843-23.815-10.852l-15.904-3.655c-7.758-1.785-15.554 2.801-17.768 10.443-.355 1.226-35.742 123.187-55.807 178.367-.344.943-.678 1.883-1.002 2.814-7.589 21.79-8.803 45.25-3.511 67.846 5.259 22.458 16.683 42.972 33.037 59.325l52.146 52.146c23.543 23.544 54.846 36.597 88.142 36.753.203.001.402.002.605.002 33.069 0 64.259-12.745 87.879-35.924l72.306-70.958c.019-.018.034-.039.053-.057.015-.015.032-.027.047-.042zm45.639-88.425-35.418 35.582c-2.339-5.507-5.738-10.667-10.221-15.151-4.521-4.521-9.73-7.941-15.29-10.281l36.895-37.094c7.092-5.663 17.494-5.215 24.058 1.351 7.05 7.05 7.05 18.519-.024 25.593zm-15.877-77.685-28.548 28.7c-.813.712-1.609 1.456-2.385 2.231l-4.497 4.542c-2.379-5.548-5.81-10.65-10.207-15.048-4.546-4.545-9.786-7.978-15.378-10.318l36.324-36.475c3.302-2.916 7.49-4.525 11.934-4.525 4.829 0 9.369 1.881 12.784 5.296 7.051 7.049 7.051 18.519-.027 25.597zm-26.919-92.211c7.049 7.049 7.049 18.519-.022 25.59l-35.425 35.572c-2.339-5.503-5.736-10.659-10.216-15.14-4.557-4.556-9.813-7.996-15.421-10.337l35.51-35.678c.003-.003.006-.005.009-.008 3.414-3.415 7.954-5.296 12.783-5.296s9.366 1.882 12.782 5.297zm-79.082-34.888c3.095-3.094 7.209-4.799 11.584-4.799 4.376 0 8.49 1.705 11.585 4.799 3.077 3.078 4.766 7.134 4.754 11.423-.013 4.309-1.732 8.396-4.844 11.507-.033.033-.06.069-.092.102l-35.726 35.895c-2.236-4.932-5.372-9.553-9.421-13.603-4.078-4.078-8.735-7.228-13.706-9.467zm-166.144 25.564 2.282.524c15.801 3.633 27.001 17.471 27.235 33.649.05 3.452-.561 7.183-1.816 11.089l-12.684 37.869-40.323 40.323c2.528-12.644 1.262-25.496-3.546-37.241 13.013-36.176 23.421-68.731 28.852-86.213zm72.245 394.011c-17.974 17.639-41.704 27.336-66.869 27.336-.153 0-.308-.001-.461-.002-25.336-.118-49.155-10.051-67.07-27.966l-52.146-52.146c-25.174-25.175-33.97-62.893-22.408-96.09.279-.802.567-1.611.865-2.428 16.596-45.64 42.548-132.925 52.452-166.658l2.111.485c9.146 2.104 16.921 7.644 21.895 15.602 4.974 7.957 6.546 17.373 4.429 26.515l-11.353 49.017c-1.51 6.521 1.483 13.254 7.336 16.502 5.854 3.247 13.15 2.223 17.883-2.511l140.693-140.693c6.387-6.387 16.778-6.389 23.169 0 6.387 6.387 6.388 16.78.001 23.168l-.027.027-116.24 116.241-2.399 2.399c-5.858 5.857-5.858 15.355 0 21.213 5.857 5.857 15.355 5.857 21.213 0l127.461-127.461c7.049-7.049 18.52-7.049 25.568 0 6.76 6.76 7.018 17.577.812 24.67l-20.667 20.753c-.003.003-.006.007-.009.01l-107.596 107.596c-5.858 5.857-5.858 15.355 0 21.213 2.929 2.929 6.768 4.394 10.606 4.394s7.678-1.465 10.606-4.394l107.628-107.628c7.049-7.049 18.52-7.049 25.568 0 7.048 7.048 7.049 18.516.003 25.565l-.031.031-107.6 107.6c-5.858 5.857-5.858 15.355 0 21.213 2.929 2.929 6.768 4.394 10.606 4.394s7.678-1.465 10.606-4.394l76.72-76.72c3.415-3.414 7.955-5.295 12.784-5.295s9.369 1.881 12.784 5.295c3.414 3.415 5.295 7.955 5.295 12.784s-1.881 9.369-5.295 12.784l-76.62 76.62z"/><path d="m369.83 449.935c-3.405-7.554-12.288-10.915-19.839-7.513-7.553 3.404-10.916 12.286-7.513 19.839l18.362 40.746c2.503 5.553 7.966 8.841 13.685 8.841 2.061 0 4.154-.427 6.154-1.328 7.553-3.404 10.916-12.286 7.513-19.839z"/><path d="m427.753 412.099c-5.572-6.128-15.057-6.583-21.189-1.01-6.13 5.573-6.582 15.06-1.01 21.189l31.274 34.402c2.961 3.256 7.024 4.91 11.104 4.91 3.6 0 7.211-1.288 10.085-3.9 6.13-5.573 6.582-15.06 1.01-21.189z"/><path d="m503.177 364.167-42.659-19.265c-7.551-3.406-16.435-.052-19.845 7.497-3.409 7.551-.053 16.435 7.497 19.845l42.659 19.265c2.004.904 4.101 1.333 6.165 1.333 5.715 0 11.175-3.284 13.68-8.83 3.409-7.551.052-16.435-7.497-19.845z"/></g></svg>