<svg id="Layer_1" enable-background="new 0 0 511.773 511.773" height="512" viewBox="0 0 511.773 511.773" width="512" xmlns="http://www.w3.org/2000/svg"><g><path d="m360.647 445.995c-3.618-8.025-13.055-11.596-21.077-7.982-8.024 3.617-11.597 13.053-7.982 21.077l19.508 43.289c2.659 5.899 8.463 9.393 14.539 9.393 2.189 0 4.414-.453 6.538-1.411 8.024-3.617 11.597-13.053 7.982-21.077z"/><path d="m422.185 405.798c-5.92-6.51-15.996-6.994-22.512-1.073-6.513 5.921-6.993 16-1.073 22.512l33.227 36.55c3.146 3.459 7.463 5.217 11.798 5.217 3.824 0 7.661-1.368 10.714-4.144 6.513-5.921 6.993-16 1.073-22.512z"/><path d="m502.317 354.873-45.322-20.467c-8.022-3.619-17.46-.055-21.083 7.965-3.622 8.022-.056 17.46 7.965 21.083l45.322 20.467c2.129.961 4.357 1.416 6.55 1.416 6.072 0 11.872-3.489 14.534-9.381 3.621-8.022.055-17.46-7.966-21.083z"/><path d="m375.588 261.666c-6.556-1.302-12.985.685-17.534 5.233l-81.509 81.509c-3.112 3.112-7.19 4.668-11.269 4.668-4.078 0-8.157-1.556-11.268-4.668-6.224-6.223-6.224-16.314 0-22.537l114.29-114.29.062-.063c6.075-6.152 7.509-15.679 3.111-23.123-6.703-11.343-21.628-12.688-30.281-4.035l-114.346 114.347c-3.112 3.112-7.19 4.668-11.268 4.668s-8.157-1.556-11.269-4.668c-6.224-6.223-6.224-16.314 0-22.537l114.313-114.313c.003-.003.006-.007.009-.01l21.957-22.048c6.626-7.572 6.317-19.139-.967-26.314-7.574-7.46-19.884-7.072-27.401.445l-134.756 134.756c-6.068 6.068-15.951 6.626-22.298.851-6.776-6.166-6.962-16.665-.558-23.069l2.549-2.549 123.523-123.524c6.786-6.786 6.786-17.829 0-24.615-6.79-6.787-17.83-6.785-24.615 0l-149.198 149.198c-4.548 4.548-11.382 6.214-17.363 3.849-7.464-2.951-11.47-10.829-9.708-18.436l12.062-52.076c5.127-16.958-5.438-36.106-21.737-42.947-4.35-1.826-9.321.58-10.656 5.105-49.318 177.662-88.329 209.601-30.656 274.31l55.4 55.4c19.034 19.033 44.339 29.586 71.257 29.711.162.001.327.002.49.002 26.736 0 51.948-10.303 71.043-29.042l76.818-75.387.087-.087 83.018-83.295c2.533-3.324 3.923-7.352 3.923-11.603 0-6.413-3.122-12.346-8.645-16.065-1.993-1.343-4.252-2.282-6.61-2.751z"/><path d="m406.513 172.984c.829-.829 1.682-1.627 2.554-2.391l30.309-30.471c7.519-7.52 7.519-19.706.03-27.194-3.628-3.628-8.452-5.626-13.582-5.626-4.721 0-9.17 1.71-12.679 4.808l-38.588 38.749c5.941 2.486 11.506 6.138 16.335 10.966 4.671 4.672 8.316 10.093 10.844 15.987z"/><path d="m362.261 91.05c4.76 4.761 8.373 10.237 10.856 16.083l15.735-15.801c.273-.32.549-.639.852-.942.551-.551 1.116-1.085 1.688-1.608l19.36-19.44c7.513-7.513 7.513-19.698.024-27.187-3.628-3.628-8.452-5.626-13.582-5.626-5.131 0-9.954 1.998-13.581 5.626-.004.004-.007.006-.011.01l-37.729 37.907c5.96 2.488 11.546 6.137 16.388 10.978z"/><path d="m418.615 260.459 37.629-37.803c7.515-7.515 7.515-19.7.025-27.19-6.973-6.975-18.025-7.451-25.559-1.435l-39.199 39.409c5.906 2.486 11.441 6.119 16.244 10.923 4.764 4.763 8.375 10.245 10.86 16.096z"/><path d="m123.359 163.41 42.84-42.84 13.475-40.23c6.239-20.691-2.274-39.528-22.292-46.291-3.828-1.293-7.966.872-9.178 4.726-6.139 19.523-16.273 50.765-28.612 85.07 5.107 12.479 6.453 26.133 3.767 39.565z"/><path d="m313.218 67.701 37.962-38.141c.034-.035.063-.074.098-.109 6.857-6.857 6.898-17.558.095-24.361-6.79-6.787-17.83-6.785-24.615 0l-38.105 38.096c5.281 2.379 10.229 5.725 14.562 10.058 4.304 4.303 7.631 9.214 10.003 14.457z"/></g></svg>